<?xml version="1.0"?>
<svg width="240" height="200" xmlns="http://www.w3.org/2000/svg" xmlns:svg="http://www.w3.org/2000/svg"> 
	<title>Fotograma</title>
		
	<!-- Fondo --> 
	<rect id="svg_2" x="0" y="0" width="240" height="200" stroke-width="0" stroke="#000000" fill="#000000"/>
	
	<!-- Rectangulo central -->
	<rect id="svg_3" x="7" y="30" width="225" height="140" stroke-width="0" stroke="#ffffff" fill="#ffffff"/>
	
	<!-- Rectangulos arriba -->
	<rect id="rec" x="07" y="7" width="15" height="16" stroke-width="0" stroke="#ffffff" fill="#ffffff"/>
	<rect id="rec" x="37" y="7" width="15" height="16" stroke-width="0" stroke="#ffffff" fill="#ffffff"/>
	<rect id="rec" x="67" y="7" width="15" height="16" stroke-width="0" stroke="#ffffff" fill="#ffffff"/>
	<rect id="rec" x="97" y="7" width="15" height="16" stroke-width="0" stroke="#ffffff" fill="#ffffff"/>
	<rect id="rec" x="127" y="7" width="15" height="16" stroke-width="0" stroke="#ffffff" fill="#ffffff"/>
	<rect id="rec" x="157" y="7" width="15" height="16" stroke-width="0" stroke="#ffffff" fill="#ffffff"/>
	<rect id="rec" x="187" y="7" width="15" height="16" stroke-width="0" stroke="#ffffff" fill="#ffffff"/>
	<rect id="rec" x="217" y="7" width="15" height="16" stroke-width="0" stroke="#ffffff" fill="#ffffff"/>

	<!-- Rectangulos abajo -->
	<rect id="rec" x="07" y="177" width="15" height="16" stroke-width="0" stroke="#ffffff" fill="#ffffff"/>
	<rect id="rec" x="37" y="177" width="15" height="16" stroke-width="0" stroke="#ffffff" fill="#ffffff"/>
	<rect id="rec" x="67" y="177" width="15" height="16" stroke-width="0" stroke="#ffffff" fill="#ffffff"/>
	<rect id="rec" x="97" y="177" width="15" height="16" stroke-width="0" stroke="#ffffff" fill="#ffffff"/>
	<rect id="rec" x="127" y="177" width="15" height="16" stroke-width="0" stroke="#ffffff" fill="#ffffff"/>
	<rect id="rec" x="157" y="177" width="15" height="16" stroke-width="0" stroke="#ffffff" fill="#ffffff"/>
	<rect id="rec" x="187" y="177" width="15" height="16" stroke-width="0" stroke="#ffffff" fill="#ffffff"/>
	<rect id="rec" x="217" y="177" width="15" height="16" stroke-width="0" stroke="#ffffff" fill="#ffffff"/>
</svg>
